<svg width="42" height="43" viewBox="0 0 42 43" fill="none" xmlns="http://www.w3.org/2000/svg">
<path d="M20.761 0.831055C9.29504 0.831055 2.2094e-06 10.1674 2.2094e-06 21.6843C-0.00163654 25.2517 0.908367 28.7598 2.64291 31.8728C4.37745 34.9858 6.87847 37.5995 9.90656 39.4637H11.375C11.5432 38.0074 11.6237 36.5423 11.6162 35.0762C11.6237 33.6099 11.5432 32.1445 11.375 30.6879H16.2621C16.0936 32.1445 16.0128 33.6099 16.02 35.0762C16.0128 36.5423 16.0936 38.0075 16.2621 39.4637H18.5382C18.6784 38.0024 18.7608 36.2032 18.7608 34.2598C18.7608 32.3165 18.6758 30.5156 18.5382 29.0559H23.4287V29.0627C23.2894 30.5224 23.207 32.3182 23.207 34.2615C23.207 36.2049 23.2919 38.0015 23.4287 39.4654V39.4731H25.704C25.8548 38.1038 25.9272 36.7269 25.9206 35.3492C25.9272 33.9719 25.8548 32.5952 25.704 31.2262H30.5944C30.4428 32.5958 30.3703 33.973 30.377 35.3509C30.3703 36.7289 30.4428 38.1061 30.5944 39.4757H31.6136C34.642 37.6117 37.1433 34.998 38.878 31.885C40.6127 28.7719 41.5227 25.2637 41.521 21.6962C41.5219 10.1674 32.2269 0.831055 20.761 0.831055ZM10.648 21.1895C10.2149 21.5275 9.68041 21.7079 9.13196 21.7013C7.18361 21.7013 5.19957 19.665 5.19957 19.665C5.19957 19.665 9.5974 18.5628 10.648 21.1895ZM10.3176 22.1825C10.1376 23.2062 8.96464 23.3981 8.11532 23.399C7.81649 23.3995 7.51806 23.377 7.22268 23.3316C7.22268 23.3316 8.71579 21.2185 10.3176 22.1825ZM7.94885 32.2994C7.64975 32.2999 7.35104 32.2774 7.05536 32.232C7.05536 32.232 8.54932 30.1189 10.1503 31.0829C9.97109 32.1083 8.79733 32.2994 7.94885 32.2994ZM8.96805 30.6034C7.01884 30.6034 5.03481 28.5671 5.03481 28.5671C5.03481 28.5671 9.43348 27.4632 10.4841 30.0899C10.0505 30.429 9.51501 30.61 8.9655 30.6034H8.96805ZM10.7117 29.0679C8.8432 29.0619 8.6521 26.4778 8.6521 26.4778C8.6521 26.4778 11.3037 27.5178 10.7092 29.0653L10.7117 29.0679ZM10.8816 20.1666C9.01306 20.1615 8.82196 17.5774 8.82196 17.5774C8.82196 17.5774 11.471 18.6199 10.8765 20.164L10.8816 20.1666ZM16.2672 30.1308H11.3801C11.5483 28.6745 11.6289 27.2094 11.6213 25.7433C11.6288 24.2776 11.5483 22.8127 11.3801 21.3567H16.2672C16.0983 22.8129 16.0175 24.2781 16.0251 25.7442C16.0163 27.209 16.0954 28.673 16.2621 30.1283L16.2672 30.1308ZM16.2672 20.7953H11.3801C11.5482 19.3393 11.6288 17.8744 11.6213 16.4087C11.6288 14.9424 11.5483 13.4769 11.3801 12.0203H16.2672C16.0987 13.4769 16.0179 14.9423 16.0251 16.4087C16.0163 17.8735 16.0954 19.3375 16.2621 20.7928L16.2672 20.7953ZM23.4338 18.0884C23.2945 19.5481 23.2121 21.3447 23.2121 23.2872C23.2121 25.2297 23.297 27.0264 23.4338 28.4869V28.4937H18.5425C18.6826 27.0332 18.765 25.234 18.765 23.2898C18.765 21.3456 18.6801 19.5464 18.5425 18.0859H23.4329L23.4338 18.0884ZM23.4338 7.11585C23.2945 8.57551 23.2121 10.3713 23.2121 12.3146C23.2121 14.258 23.297 16.0538 23.4338 17.5143V17.522H18.5425C18.6826 16.0615 18.765 14.2623 18.765 12.3181C18.765 10.3738 18.6801 8.5738 18.5425 7.11415H23.4329L23.4338 7.11585ZM23.9901 16.5657C23.5043 14.9797 26.2238 14.1258 26.2238 14.1258C26.2238 14.1258 25.8705 16.5699 24.12 16.5699C24.0725 16.5674 24.0292 16.5657 23.985 16.5631L23.9901 16.5657ZM29.6874 16.4624C29.6874 16.4624 27.6974 18.2079 25.8102 18.2079C25.1998 18.2202 24.6067 18.004 24.1464 17.6013C25.3617 15.0062 29.6823 16.4599 29.6823 16.4599L29.6874 16.4624ZM24.4029 18.6148C26.0675 17.7617 27.4112 19.9798 27.4112 19.9798C27.4112 19.9798 27.2218 19.9985 26.9381 19.9985C26.1236 19.996 24.5311 19.8382 24.4029 18.6148ZM30.5944 30.6529H25.704C25.8548 29.2836 25.9272 27.9067 25.9206 26.529C25.9271 25.1516 25.8548 23.775 25.704 22.406H30.5944C30.4428 23.7755 30.3703 25.1528 30.377 26.5307C30.3704 27.9078 30.4429 29.2842 30.5944 30.6529ZM28.1705 11.5289C28.1707 10.8389 28.4437 10.1772 28.9294 9.68933C29.4152 9.20142 30.074 8.92721 30.7609 8.92699C31.448 8.92699 32.107 9.20109 32.5929 9.68903C33.0789 10.177 33.352 10.8388 33.3522 11.5289C33.3522 11.8708 33.2852 12.2092 33.155 12.525C33.0247 12.8408 32.8339 13.1277 32.5932 13.3694C32.3526 13.6111 32.0669 13.8028 31.7526 13.9336C31.4382 14.0644 31.1012 14.1318 30.7609 14.1318C30.0738 14.1315 29.4149 13.8572 28.9291 13.3691C28.4434 12.881 28.1705 12.2191 28.1705 11.5289ZM31.4395 29.8962C30.9537 28.3111 33.6732 27.4572 33.6732 27.4572C33.6732 27.4572 33.3199 29.9005 31.5695 29.9005C31.527 29.9005 31.4837 29.8996 31.4395 29.8962ZM34.3926 33.3299C33.5781 33.3299 31.9856 33.1721 31.8574 31.9488C33.5221 31.0957 34.8657 33.3137 34.8657 33.3137C34.8657 33.3137 34.6797 33.3299 34.3926 33.3299ZM33.2596 31.5384C32.6492 31.5501 32.0563 31.3336 31.5958 30.931C32.8163 28.3393 37.1368 29.7921 37.1368 29.7921C37.1368 29.7921 35.1468 31.5393 33.2596 31.5393V31.5384Z" fill="#5F1E03"/>
<path d="M4.70898 41.3039C4.70898 41.7816 11.8951 42.1681 20.7612 42.1681C29.6274 42.1681 36.8135 41.7816 36.8135 41.3039C36.8135 40.8262 29.6274 40.4397 20.7612 40.4397C11.8951 40.4397 4.70898 40.8262 4.70898 41.3039Z" fill="#5F1E03"/>
</svg>
