<svg width="99" height="97" viewBox="0 0 99 97" fill="none" xmlns="http://www.w3.org/2000/svg">
<path d="M49.5301 0C22.6251 0 0.81397 21.908 0.81397 48.9327C0.810125 57.3037 2.94548 65.5355 7.01563 72.8403C11.0858 80.1451 16.9545 86.2783 24.06 90.6527H27.5058C27.9004 87.2355 28.0893 83.7974 28.0718 80.3573C28.0893 76.9166 27.9003 73.4779 27.5058 70.0599H38.9733C38.5781 73.4778 38.3884 76.9165 38.4054 80.3573C38.3884 83.7975 38.5781 87.2355 38.9733 90.6527H44.3145C44.6433 87.2236 44.8367 83.0017 44.8367 78.4416C44.8367 73.8814 44.6374 69.6556 44.3145 66.2304H55.79V66.2465C55.4632 69.6716 55.2698 73.8854 55.2698 78.4456C55.2698 83.0057 55.4692 87.2216 55.79 90.6567V90.6748H61.1292C61.4831 87.4616 61.6528 84.2306 61.6374 80.9979C61.6528 77.7659 61.4831 74.5356 61.1292 71.3231H72.6047C72.249 74.5368 72.0787 77.7685 72.0945 81.0019C72.0787 84.2354 72.249 87.467 72.6047 90.6807H74.9962C82.1024 86.3068 87.9717 80.1738 92.0422 72.869C96.1128 65.5641 98.2483 57.3319 98.2442 48.9607C98.2462 21.908 76.4352 0 49.5301 0ZM25.7998 47.7716C24.7835 48.5647 23.5293 48.9881 22.2424 48.9727C17.6705 48.9727 13.0149 44.1943 13.0149 44.1943C13.0149 44.1943 23.3345 41.608 25.7998 47.7716ZM25.0245 50.1017C24.602 52.5039 21.8498 52.9543 19.8568 52.9563C19.1556 52.9576 18.4553 52.9047 17.7622 52.7982C17.7622 52.7982 21.2658 47.8397 25.0245 50.1017ZM19.4662 73.8414C18.7643 73.8426 18.0634 73.7897 17.3696 73.6832C17.3696 73.6832 20.8752 68.7247 24.6319 70.9868C24.2114 73.393 21.4572 73.8414 19.4662 73.8414ZM21.8577 69.8617C17.2839 69.8617 12.6283 65.0834 12.6283 65.0834C12.6283 65.0834 22.9499 62.493 25.4152 68.6567C24.3977 69.4523 23.1412 69.8773 21.8518 69.8617H21.8577ZM25.9493 66.2585C21.5648 66.2444 21.1164 60.1809 21.1164 60.1809C21.1164 60.1809 27.3384 62.6212 25.9433 66.2525L25.9493 66.2585ZM26.3479 45.3714C21.9634 45.3594 21.515 39.2959 21.515 39.2959C21.515 39.2959 27.731 41.7421 26.3359 45.3654L26.3479 45.3714ZM38.9853 68.7527H27.5178C27.9124 65.3355 28.1014 61.8975 28.0838 58.4573C28.1014 55.0179 27.9123 51.5805 27.5178 48.164H38.9853C38.5891 51.5811 38.3994 55.0192 38.4173 58.4594C38.3967 61.8966 38.5824 65.3319 38.9733 68.7467L38.9853 68.7527ZM38.9853 46.8468H27.5178C27.9122 43.4302 28.1012 39.9928 28.0838 36.5534C28.1014 33.1126 27.9123 29.6739 27.5178 26.256H38.9853C38.59 29.6738 38.4003 33.1125 38.4173 36.5534C38.3966 39.9906 38.5823 43.426 38.9733 46.8407L38.9853 46.8468ZM55.802 40.495C55.4752 43.9201 55.2818 48.1359 55.2818 52.6941C55.2818 57.2522 55.4811 61.4681 55.802 64.8952V64.9112H44.3245C44.6533 61.4841 44.8467 57.2623 44.8467 52.7001C44.8467 48.1379 44.6473 43.9161 44.3245 40.4889H55.8L55.802 40.495ZM55.802 14.7475C55.4752 18.1726 55.2818 22.3864 55.2818 26.9466C55.2818 31.5068 55.4811 35.7206 55.802 39.1477V39.1657H44.3245C44.6533 35.7386 44.8467 31.5168 44.8467 26.9546C44.8467 22.3924 44.6473 18.1686 44.3245 14.7435H55.8L55.802 14.7475ZM57.1074 36.9217C55.9674 33.2003 62.3489 31.1965 62.3489 31.1965C62.3489 31.1965 61.5198 36.9317 57.4123 36.9317C57.3007 36.9257 57.1991 36.9217 57.0954 36.9157L57.1074 36.9217ZM70.4762 36.6795C70.4762 36.6795 65.8067 40.7752 61.3783 40.7752C59.9461 40.8042 58.5544 40.2969 57.4741 39.3519C60.326 33.2624 70.4642 36.6735 70.4642 36.6735L70.4762 36.6795ZM58.076 41.7301C61.9822 39.7283 65.135 44.933 65.135 44.933C65.135 44.933 64.6906 44.977 64.025 44.977C62.1137 44.971 58.3769 44.6007 58.076 41.7301ZM72.6047 69.9779H61.1292C61.4831 66.7647 61.6528 63.5338 61.6374 60.301C61.6527 57.069 61.483 53.8387 61.1292 50.6262H72.6047C72.249 53.8399 72.0787 57.0716 72.0945 60.305C72.0789 63.5365 72.2492 66.7662 72.6047 69.9779ZM66.9168 25.1029C66.9173 23.4838 67.5579 21.9311 68.6977 20.7862C69.8375 19.6413 71.3834 18.9979 72.9953 18.9973C74.6077 18.9973 76.1539 19.6405 77.2942 20.7855C78.4345 21.9305 79.0754 23.4834 79.0759 25.1029C79.0759 25.905 78.9186 26.6992 78.613 27.4402C78.3074 28.1812 77.8596 28.8545 77.2949 29.4216C76.7303 29.9888 76.06 30.4386 75.3222 30.7456C74.5845 31.0525 73.7939 31.2105 72.9953 31.2105C71.383 31.21 69.8369 30.5662 68.697 29.4209C67.5571 28.2756 66.9168 26.7224 66.9168 25.1029ZM74.5877 68.2022C73.4477 64.4828 79.8292 62.479 79.8292 62.479C79.8292 62.479 79.0001 68.2122 74.8926 68.2122C74.793 68.2122 74.6914 68.2103 74.5877 68.2022ZM81.5173 76.2596C79.606 76.2596 75.8692 75.8893 75.5682 73.0186C79.4745 71.0168 82.6273 76.2216 82.6273 76.2216C82.6273 76.2216 82.1909 76.2596 81.5173 76.2596ZM78.8586 72.0558C77.4263 72.0831 76.035 71.5751 74.9544 70.6305C77.8183 64.5489 87.9565 67.958 87.9565 67.958C87.9565 67.958 83.287 72.0578 78.8586 72.0578V72.0558Z" fill="white"/>
<path d="M11.8638 94.9729C11.8638 96.0939 28.7263 97.0008 49.5309 97.0008C70.3355 97.0008 87.198 96.0939 87.198 94.9729C87.198 93.8519 70.3355 92.9451 49.5309 92.9451C28.7263 92.9451 11.8638 93.8519 11.8638 94.9729Z" fill="white"/>
</svg>
